# xmcd
#
# Track frame offsets:
#	150
#	12433
#	27935
#	42859
#	60140
#	74662
#	92803
#	110946
#	128413
#	143388
#	165604
#	176594
#	188996
#	203185
#	218798
#	228216
#	242144
#	256572
#	272407
#
# Disc length: 3817 seconds
#
# Revision: 0
# Processed by: cddbd v1.5.1PL0 Copyright (c) Steve Scherf et al.
# Submitted via: audiograbber 1.83.01
#
DISCID=000ee713
DTITLE=Dolly Parton - Collectors Series
DYEAR=1992
DGENRE=Country
TTITLE0=Jolene
TTITLE1=Think about love
TTITLE2=Downtown
TTITLE3=Save the last dance for me
TTITLE4=Heartbreak express
TTITLE5=The house of the rising sun
TTITLE6=Starting over again
TTITLE7=Great balls of fire
TTITLE8=It's all wrong, but it's all right
TTITLE9=Light of a clear blue morning
TTITLE10=All I can do
TTITLE11=The bargain store
TTITLE12=I will always love You
TTITLE13=tie our love (In A Double Knot)
TTITLE14=Washday blues
TTITLE15=Coat of many colours
TTITLE16=Mule skinner blues
TTITLE17=My blue ridge mountain blues
TTITLE18=Just because I'm a woman
EXTD=
EXTT0=
EXTT1=
EXTT2=
EXTT3=
EXTT4=
EXTT5=
EXTT6=
EXTT7=
EXTT8=
EXTT9=
EXTT10=
EXTT11=
EXTT12=
EXTT13=
EXTT14=
EXTT15=
EXTT16=
EXTT17=
EXTT18=
PLAYORDER=
